<?xml version="1.0" standalone="no"?>
<!DOCTYPE svg PUBLIC "-//W3C//DTD SVG 20010904//EN"
 "http://www.w3.org/TR/2001/REC-SVG-20010904/DTD/svg10.dtd">
<svg version="1.0" xmlns="http://www.w3.org/2000/svg"
 width="512.000000pt" height="512.000000pt" viewBox="0 0 512.000000 512.000000"
 preserveAspectRatio="xMidYMid meet">
<metadata>
Created by potrace 1.14, written by Peter Selinger 2001-2017
</metadata>
<g transform="translate(0.000000,512.000000) scale(0.100000,-0.100000)"
fill="#000000" stroke="none">
<path d="M2379 5116 c-2 -2 -40 -6 -83 -10 -44 -4 -82 -9 -85 -11 -4 -2 -34
-7 -66 -10 -117 -14 -472 -111 -499 -136 -6 -5 -16 -9 -23 -9 -31 0 -241 -103
-388 -191 -256 -152 -459 -332 -696 -616 -38 -46 -167 -241 -211 -319 -69
-124 -130 -257 -176 -384 -32 -90 -78 -246 -86 -293 -3 -15 -7 -35 -10 -45 -3
-9 -7 -34 -11 -56 -3 -21 -7 -41 -9 -45 -4 -6 -12 -68 -26 -201 -8 -82 -5
-463 5 -520 3 -19 13 -78 21 -130 52 -320 172 -640 349 -925 56 -92 160 -238
200 -282 139 -154 184 -201 260 -270 335 -304 763 -522 1190 -607 110 -22 114
-23 170 -30 28 -3 73 -9 100 -13 71 -9 426 -9 510 0 89 9 117 13 245 38 58 12
116 23 130 26 39 7 316 101 369 124 90 41 244 121 320 166 636 382 1088 1046
1207 1773 38 235 40 574 5 805 -108 709 -518 1350 -1116 1747 -117 77 -257
155 -370 204 -44 20 -89 39 -100 44 -86 38 -365 119 -465 134 -19 3 -46 8 -60
11 -14 3 -45 8 -70 11 -25 3 -56 8 -70 10 -28 6 -456 15 -461 10z m345 -175
c126 -47 162 -58 231 -66 28 -3 64 -8 80 -10 17 -2 122 -16 235 -30 l205 -26
150 -74 c293 -144 549 -339 761 -581 l55 -62 -49 -218 -49 -219 44 -125 c25
-69 58 -163 75 -210 16 -47 32 -92 35 -100 3 -8 7 -19 9 -25 1 -5 12 -37 24
-70 22 -59 97 -270 168 -472 l36 -102 100 -25 c126 -30 157 -42 152 -58 -3 -7
-7 -52 -10 -100 -30 -464 -220 -944 -523 -1321 -104 -129 -256 -284 -356 -362
-22 -17 -53 -42 -70 -56 -46 -38 -202 -140 -272 -179 -284 -157 -503 -231
-870 -295 -143 -24 -451 -25 -635 -1 -184 24 -404 80 -569 146 -99 39 -232
102 -316 150 -22 13 -49 28 -60 34 -85 47 -338 240 -398 304 -24 25 -26 31
-14 43 8 8 113 99 234 202 l220 188 -52 132 c-29 73 -130 333 -225 579 l-173
447 -71 25 c-227 79 -629 216 -631 214 -3 -3 -14 -320 -14 -427 -1 -71 -6 -77
-15 -16 -4 23 -8 50 -10 62 -25 128 -26 479 -2 633 2 14 7 46 10 71 10 67 16
99 28 144 5 22 11 47 13 55 4 21 35 130 45 160 56 164 58 168 249 405 102 127
238 295 302 375 65 80 153 203 197 273 59 94 91 136 123 158 197 137 364 230
539 300 93 36 271 95 320 104 10 2 60 12 111 23 52 11 146 25 209 31 253 25
290 23 424 -28z"/>
<path d="M2565 4684 c-49 -18 -173 -63 -275 -99 -191 -69 -277 -100 -440 -158
-52 -19 -154 -56 -227 -82 l-132 -47 4 -87 c2 -47 6 -169 10 -271 3 -102 8
-239 10 -305 10 -279 17 -430 20 -433 4 -4 76 -19 305 -62 91 -17 197 -37 235
-45 39 -8 82 -16 98 -19 50 -9 142 -26 167 -31 14 -3 36 -7 50 -9 14 -3 84
-16 155 -30 72 -14 146 -28 165 -32 19 -4 50 -7 69 -8 33 -1 37 3 235 287 110
158 255 364 321 459 66 94 128 184 138 199 l19 29 -78 72 c-43 40 -89 84 -104
98 -14 14 -70 66 -124 115 -53 50 -116 108 -140 130 -23 22 -95 90 -161 150
-65 61 -132 124 -150 140 -17 17 -43 40 -56 51 l-24 22 -90 -34z"/>
<path d="M3115 1814 c-33 -38 -62 -71 -65 -74 -3 -3 -39 -43 -80 -90 -41 -47
-77 -87 -80 -90 -3 -3 -39 -43 -80 -90 -41 -47 -77 -87 -80 -90 -3 -3 -39 -43
-80 -90 -41 -47 -80 -90 -86 -97 -74 -79 -198 -226 -195 -231 4 -7 309 -326
511 -533 l115 -119 40 19 c22 11 243 105 490 211 248 105 466 198 485 206 85
37 81 29 116 244 2 14 6 34 9 46 3 12 7 39 10 60 4 21 8 46 10 54 4 12 58 302
79 425 3 17 12 63 19 103 13 65 12 72 -2 73 -9 0 -25 2 -36 4 -11 2 -42 7 -70
10 -27 3 -66 7 -85 10 -19 2 -57 7 -85 10 -27 4 -61 8 -75 10 -14 2 -47 6 -75
10 -27 3 -66 8 -85 10 -19 2 -60 7 -90 10 -30 4 -66 8 -80 11 -14 2 -50 6 -80
10 -30 3 -83 10 -116 15 -34 5 -93 12 -131 15 l-69 6 -59 -68z"/>
</g>
</svg>
